<svg width="644" height="381" xmlns="http://www.w3.org/2000/svg" xmlns:xlink="http://www.w3.org/1999/xlink"><defs><path d="M62 4.8C62 7.2 48.1 9 31.1 9S.4 7 .4 4.8C.4 2.4 14.2.5 31.2.5" id="a"/><path d="M62 4.7C62 7 48.4 9 31.4 9S.6 7 .6 4.7C.6 2.3 14.3.4 31.3.4" id="c"/><path d="M138.8 9.3c0 5-31 9-69.3 9S.2 14.3.2 9.3s31-9 69.3-9" id="e"/><path d="M138.7 9.2c0 5-31 9-69.3 9S.1 14.2.1 9.2s31-9 69.3-9" id="g"/><path d="M140 10.2c0 5-31 9-69.3 9-38.2 0-69.3-4-69.3-9s31-9 69.3-9" id="i"/><path d="M139 9.3c0 5-31 9-69.3 9S.3 14.3.3 9.3s31-9 69.4-9" id="k"/><path d="M82.9 9.1c0 5-18.6 9-41.5 9C18.6 18 0 14 0 9s18.6-9 41.4-9" id="m"/><path d="M20.2 1.2l.3 10.5L9.4 38.1l3.1 4.8-1 1.2c-2.5.8-5 .3-5 .3L.4 37.2l19.8-36z" id="o"/><linearGradient x1="0%" y1="50%" y2="50%" id="p"><stop stop-color="#E9D18C" offset="0%"/><stop stop-color="#524F62" offset="100%"/></linearGradient><path d="M6.2 1A5.6 5.6 0 0 0 .8 8l10 38c.4 1.2 1 2.2 2 3L47.2 1H6.2z" id="r"/><linearGradient x1="0%" y1="50%" y2="50%" id="s"><stop stop-color="#484DC1" offset="0%"/><stop stop-color="#444BCC" offset="100%"/></linearGradient><path id="u" d="M.8 56.8l26.3.2-1-56.2z"/><linearGradient x1="-106.1%" y1="87.9%" x2="271.8%" y2="17.7%" id="v"><stop stop-color="#E9D18C" offset="0%"/><stop stop-color="#524F62" offset="100%"/></linearGradient><path d="M3.1 21.6c1 1.9 2.3 3.5 4.1 4.6 2.4 1.4 5.3 1.6 8 1a41 41 0 0 0 19-12.6c2.1-2.7 3.8-6.6 2-9.6-1.1-2-3.4-2.9-5.5-3.5-1.8-.5-4-.7-6.3-.7C12 .8-4.2 7.7 3 21.6" id="x"/><linearGradient x1="19.4%" y1="147.7%" x2="71.6%" y2="-37.9%" id="y"><stop stop-color="#484DC1" offset="0%"/><stop stop-color="#444BCC" offset="100%"/></linearGradient><path d="M38.7.4l-30.3 32S3.8 44.3.5 53.6v8.8l31.5-.6-10.7-12.5 23.4-11.2-2-38-4 .3z" id="A"/><linearGradient x1="0%" y1="50%" y2="50%" id="B"><stop stop-color="#B65679" offset="0%"/><stop stop-color="#C35670" offset="100%"/></linearGradient><path d="M1.3 13.5l11 16.9C11.8 23 9.2.2 9.2.2L1.3 13.5z" id="D"/><linearGradient x1="31.1%" y1="114.4%" x2="88.3%" y2="-13.9%" id="E"><stop stop-color="#484DC1" offset="0%"/><stop stop-color="#444BCC" offset="100%"/></linearGradient><path id="G" d="M.3 1l340.4 31.3V1z"/><linearGradient x1="49.5%" y1="76.4%" x2="56.5%" y2="-276.5%" id="H"><stop stop-color="#676475" offset="0%"/><stop stop-color="#524F62" offset="100%"/></linearGradient></defs><g fill="none" fill-rule="evenodd"><path fill="#FFF" d="M330.3 209H585V.7H330.3z"/><g transform="translate(16.2 346.4)"><mask id="b" fill="#fff"><use xlink:href="#a"/></mask><path d="M62 4.8C62 7.2 48.1 9 31.1 9S.4 7 .4 4.8C.4 2.4 14.2.5 31.2.5s30.7 1.9 30.7 4.3" fill="#F6F5F6" mask="url(#b)"/></g><g transform="translate(581.7 348)"><mask id="d" fill="#fff"><use xlink:href="#c"/></mask><path d="M62 4.7C62 7 48.4 9 31.4 9S.6 7 .6 4.7C.6 2.3 14.3.4 31.3.4s30.8 1.9 30.8 4.3" fill="#F6F5F6" mask="url(#d)"/></g><path fill="#FFF" d="M54.4 209H309V.7H54.4z"/><path fill="#EFF2F7" d="M585 73.1h-27.2v52.3h-33.5v14.8H497V60.6H464v99h-31.5V73.3H408v71.1h-6.2v-14.8h-32v29.6h-12v-103h-27.4V209H585zM309 73.1h-21.6v52.3h-33.5v14.8h-27.4V60.6h-32.8v99h-31.5V73.3h-24.7v71.1h-6.2v-14.8h-32v29.6h-12v-103H54.4V209H309z"/><path d="M23.5 217.5S14 260 29.1 288.6l15 28.8s4-72-20.6-99.9" fill="#5BB59B"/><path d="M24.2 328c.9 5.3 2 10.5 4.6 15.1 2.6 4.6 6.7 8.6 11.8 9.8 2.3.6 4.7.6 7.1.5 2.6 0 5.3-.2 7.6-1.6 3-1.7 4.5-5 5.7-8.3 2-5.4 3.5-11 4.5-16.7.6-3.3 1-6.8-.5-9.8-2.1-4-7-5.6-11.4-6.4a48.6 48.6 0 0 0-24.6 1.2c-6.2 2.7-5.8 10.6-4.8 16.3" fill="#FFF"/><path d="M41 317.5c5.8.4 12.1-.5 15.8-2.5.8-.4 1.4-1 1-1.4-.3-.6-2-.8-3.3-1a83 83 0 0 0-21.7.1c-10.1 1.8 2.8 4.5 8.1 4.8" fill="#524F63"/><path d="M37.8 207.1s-4.7 80.7 6.4 110.3c0 0 7.2-72-6.4-110.3" fill="#63A590"/><path d="M42.8 316.8h2.6c3.8-16 15.1-67.7 9.1-91.9 0 0-19 68-14.3 83.1l2.6 8.8M590.5 220.3s-9.6 42.3 5.5 71l15.2 28.9s4-72-20.7-100" fill="#5BB59B"/><path d="M591.1 330.8c1 5.2 2.1 10.5 4.7 15 2.5 4.7 6.7 8.6 11.8 9.9 2.3.5 4.7.5 7 .5 2.7-.1 5.4-.3 7.7-1.6 2.9-1.7 4.4-5 5.6-8.3 2-5.4 3.6-11 4.6-16.7.6-3.3 1-6.9-.6-9.8-2-4-6.9-5.7-11.3-6.4a48.6 48.6 0 0 0-24.7 1.2c-6.2 2.6-5.8 10.6-4.8 16.2" fill="#FFF"/><path d="M607.9 320.3c5.8.3 12.2-.6 15.9-2.6.7-.4 1.4-.9 1-1.4-.4-.5-2-.8-3.3-1a83 83 0 0 0-21.8.2c-10 1.7 2.8 4.5 8.2 4.8" fill="#524F63"/><path d="M604.8 209.9s-4.8 80.7 6.4 110.3c0 0 7.1-72-6.4-110.3" fill="#63A590"/><path d="M609.7 319.6h2.6c3.8-16 15.2-67.7 9.2-91.9 0 0-19 68-14.3 83l2.5 8.9" fill="#5BB59B"/><g transform="translate(26 355.3)"><mask id="f" fill="#fff"><use xlink:href="#e"/></mask><path d="M138.8 9.3c0 5-31 9-69.3 9S.2 14.3.2 9.3s31-9 69.3-9 69.3 4 69.3 9" fill="#F6F5F6" mask="url(#f)"/></g><g transform="translate(487.4 362.3)"><mask id="h" fill="#fff"><use xlink:href="#g"/></mask><path d="M138.7 9.2c0 5-31 9-69.3 9S.1 14.2.1 9.2s31-9 69.3-9 69.3 4 69.3 9" fill="#F6F5F6" mask="url(#h)"/></g><g transform="translate(184 352.4)"><mask id="j" fill="#fff"><use xlink:href="#i"/></mask><path d="M140 10.2c0 5-31 9-69.3 9-38.2 0-69.3-4-69.3-9s31-9 69.3-9 69.4 4 69.4 9" fill="#F6F5F6" mask="url(#j)"/></g><g transform="translate(367.7 350.4)"><mask id="l" fill="#fff"><use xlink:href="#k"/></mask><path d="M139 9.3c0 5-31 9-69.3 9S.3 14.3.3 9.3s31-9 69.4-9c38.3 0 69.3 4 69.3 9" fill="#F6F5F6" mask="url(#l)"/></g><g transform="translate(286.7 335.7)"><mask id="n" fill="#fff"><use xlink:href="#m"/></mask><path d="M82.9 9.1c0 5-18.6 9-41.5 9C18.6 18 0 14 0 9s18.6-9 41.4-9c23 0 41.5 4 41.5 9" fill="#F6F5F6" mask="url(#n)"/></g><path d="M108 124.4l26.1 4.3-12.4-11.4 6-6.7 22.5 20.3c3.2 3.3 1 8.8-3.6 9l-31.7 1-7-16.5z" fill="#E0E4ED"/><path fill="#524F63" d="M118.9 191.8l-.5 171.5-9 .7-6.3-145.6-8.3.7-8.5 143.6-9-.7 1.1-173.3z"/><path d="M108 124.4l-30.3-1.3c-3 0-6 1.2-8.1 3.6l8.8 69.5 41.3.9-3.8-63.7s-6.9-9-8-9" fill="#E0E4ED"/><path d="M121.6 111.1c-1.7 1.3-3.8 2.6-4.1 4.7-.3 1.8 1 3.6 2.7 4.3a7 7 0 0 0 5.4-.5c2.6-1.2 4.9-3.6 5.4-6.5.3-2.2-.6-6.3-3.1-7-2.8-1-4.3 3.4-6.3 5" fill="#FFF"/><path fill="#424051" d="M77.3 362l-17.5 5.3.6 1.5L86 366l.4-3.3z"/><path d="M20.8 125l-2.8-4.8 3-6.4s1.7-4.4 1.7-5.8c0-1.4-1.4-3.4-2.7-.9-1.4 2.6-2.8 4.5-2.8 4.5L9 99.4c-.3-.4-.7-.6-1-.6-1 0-1.6 1-1.2 1.9l1.9 3.5c.6 1.1-.7 2.4-1.8 1.6l-.4-.3c-2-1.4-4.9-.9-6.4 1.2l-.1.2.1 4.1c.1 2.7 1.4 5.2 3.4 6.9 4.9 4 13.5 11 13.7 10.4.3-.8 3.6-3.3 3.6-3.3M114.5 97.6c-1.1-.5-2.6 0-3.3 1-.7 1.1-.7 2.5-.3 3.7a5.3 5.3 0 0 0 5.5 3.5c2.4-.4 4.3-2.7 4-5a5 5 0 0 0-3.2-3.8 6.6 6.6 0 0 0-5 .2" fill="#EEBCC5"/><path d="M114 100.3l13.5 10.7s.3 5.8-2.9 6.5c-1 .6-13.6-12.7-13.6-12.7l3-4.5z" fill="#EEBCC5"/><path d="M109.4 364l.4 2.8 22 3.7s1-1.7.5-2l-14-5.2-9 .7z" fill="#424051"/><path d="M87.9 109.7l.7 19c0 2.2 1.6 4 3.7 4.4 2.5.4 4.8-1.4 5.1-3.9l1-16.3-10.5-3.2z" fill="#EEBCC5"/><path fill="#524F63" d="M112 114.2l-9.5-1.7 3.7-20.3 9.6 1.8z"/><path fill="#524F63" d="M111 114l-8.5-1.5 3.7-20.3 8.5 1.6z"/><path d="M86.8 125.9s-1.4 1.2-1.5 1.6c0 .4 5.3 8.9 5.3 8.9l3.7-5.9 4.5 5.9 1.9-10.6-3-.7-3.5 4-6.1-5-1.3 1.8z" fill="#FFF"/><path fill="#9092EC" d="M94.3 130.5l-2.3 3.8 1.6 2.8-.9 2.2.9 27.9 3.1 3.5 2.9-3.3-3-28.2L95 137l2-3z"/><path d="M80 89.5c-1.9 4.5-1.7 9.5-.6 14.3 1 5 3.2 10.2 7.2 13.6 4 3.3 10.3 4.2 14.5 1 2.5-1.8 3.9-4.8 4.8-7.8 2-6 2.3-12.5-.1-18.2C101.3 81.9 85.4 77 80 89.5" fill="#EEBCC5"/><path fill="#E0E4ED" d="M73.3 146.7l-32.4 10.5-23.6-25.8 5.9-4.8 21.7 17.9 24.7-17.8 4.2 7.4z"/><path fill="#FFF" d="M13.6 129.7l2.5 3.9 11-6.4-4.4-4.5z"/><path d="M74.5 98c-1.4.5-2.1 2.2-2 3.8.2 1.5 1 2.9 2 4 .5.8 1 1.4 1.8 1.9.7.4 1.5.6 2.3.7 1 .2 2.2 0 2.8-.8.3-.4.4-1 .4-1.5.3-2.5-.3-3.5-1.8-5.3-1.3-1.7-3-4-5.5-2.9" fill="#EEBCC5"/><path d="M83.8 98c-.2 2.7-1.5 5.4-3.8 6.7-1.7-2.2-2.6-5-2.9-7.8-.4-3.4.2-7 2.2-9.9 2.3-3.2 6.2-5 10.1-5.2 4-.3 7.8.7 11.5 2.2 1.6.7 3.6 1.3 4.8.1.6 1.2 1 2.6 1 3.9 0 1-.2 2-.8 3-1 1.4-2.5 3-4.2 3.4-12.8 2.9-18.8-4.1-18.8-4-.2.8.2 1.6.3 2.3.4 1.8.7 3.6.6 5.4" fill="#524F63"/><path d="M272 242.3l-3.7-71.2s-18.2-1-23.6-1c-3 0-8 1.4-12 2.6-3.7 1.2-6.8 1.1-8.6 4.6l-29.9 57.5 18.4 1.8 6-7-3-4.8 11.1-26.4-.2 44.7 45.4-.8z" fill="#EAD18C"/><g transform="translate(206.2 186.7)"><mask id="q" fill="#fff"><use xlink:href="#o"/></mask><path d="M20.2 1.2L.4 37.2l6.1 7.2s2.5.5 5-.3l1-1.2L9.4 38l11.1-26.4-.3-10.5z" fill="url(#p)" mask="url(#q)"/></g><path d="M242 227.9c-.7-.3-6.8-3.9-11.4-3.9-4.6 0-10.2 5-10.2 5s-.8 2.5 2.3 2c3-.6 5.1-.8 5.1-.8s-5.4 2.8-1.8 3.3c3.6.5 18.6 0 18.6 0l-2.5-5.6z" fill="#91616A"/><path d="M241 238.3h-59V234h59a2.2 2.2 0 0 1 0 4.3" fill="#5B61D3"/><path d="M224.8 238.3h-56.9a5.5 5.5 0 0 1-5.3-4.1l-10-38c-1-3.6 1.6-7 5.3-7h49.6c2.6 0 4.8 1.7 5.4 4.1l11.9 45z" fill="#8385E6"/><g transform="translate(151.7 188.1)"><mask id="t" fill="#fff"><use xlink:href="#r"/></mask><path d="M6.2 1A5.6 5.6 0 0 0 .8 8l10 38c.4 1.2 1 2.2 2 3L47.2 1H6.2z" fill="url(#s)" mask="url(#t)"/></g><path d="M191.3 217.1c.6 2.5-1 4.5-3.5 4.5s-5-2-5.7-4.5c-.6-2.5 1-4.5 3.5-4.5s5 2 5.7 4.5" fill="#FFF"/><path d="M242.9 161.2c.5 1 4 15.1 4 15.1s1.3 2.3 4.4 2c3-.2 4.3-4.5 4.3-4.5l-5.3-17.7-7.4 5.1z" fill="#91616A"/><path d="M261.8 152.5c0 9.7-10.3 20.5-20 20.5s-15-10.8-15-20.5a17.6 17.6 0 1 1 35 0" fill="#91616A"/><path d="M245.7 172l-2 5.4 1.2 5.6 4-5.9 4.2 6.7 4.6-8.2-3.1-5.4s-1.5 3.6-4.8 4.3c-3.4.8-4.1-2.5-4.1-2.5" fill="#FFF"/><path fill="#8385E6" d="M249 177.1l-3 3.8 1.5 2.4-2.3 4.8.5 32 3 6.5 4.4-7.2-1-30.5-2.3-5.9 1.7-2.6z"/><g transform="translate(244.5 185.2)"><mask id="w" fill="#fff"><use xlink:href="#u"/></mask><path fill="url(#v)" mask="url(#w)" d="M.8 56.8l26.3.2-1-56.2z"/></g><path d="M268.3 171.1l2.4 53-24.3 5 3.3 6.4 34.9 2-4.8-52.4a15.6 15.6 0 0 0-8.6-12.5l-2.9-1.5z" fill="#EAD18C"/><path fill="#FFF" d="M242 227.9l5 .5 4.3 7.2-8.2.5z"/><path d="M217.8 251.9l-43.2 11 22 86.7 7.6-3.8-6.5-74.5 38.6-12.2-22.3 13 .4 70.7h6.8s19-69.3 20.8-69.3c1.9 0 33.7-21.2 33.7-21.2l-58-.4z" fill="#524F63"/><path fill="#524F63" d="M173.4 356.4l30-2.1.8-9.5-32 7.3zM197.7 361.8l6 .7 17.1-6.4.4-13.3h-6.8l-3 8.3-9.2 5.6z"/><path d="M226.1 146.3c-.7 1.2-1.4 2.7-.9 4 .7 1.7 2.7 2.2 4.4 2.4 3 .3 6 .5 9 .5 2 0 4.1-.2 6-.6 3.3-.8 6.2-2.4 9-4 2-1.2 4.3-2.7 4.7-5 .3-2.3-1.3-4.4-2.9-6-.9-1-1.7-2-2.8-2.8-2.6-2-6-2.5-9.2-2a24.3 24.3 0 0 0-17.3 13.5" fill="#4A4549"/><path d="M254.8 152c.2-1 1.4-1.5 2.3-1.2 1 .4 1.6 1.3 1.7 2.2.1 1-.1 2-.6 2.8l-.5 1.3v6.4c1.4-.6 2.2-2 3-3.4 1.5-2.9 3.1-6 3-9.4a17.7 17.7 0 0 0-4-9c-.7-.5-1.7-.5-2.5-.3-.8.3-1.5.8-2.2 1.2l-2 1.4c-.7.5-1.4 1-1.7 1.7-.7 1.3.2 1.8 1 2.6.4.4-.3 9 2.5 3.7" fill="#4A4549"/><path d="M226 158.3c-.8 0-1.5.3-2 1-.4.6-.5 1.7 0 2.7.7 2.2 3 4 5 4 .9 0 1.6-.3 2-1 .5-.6.6-1.7.2-2.7-.8-2.2-3-4-5.1-4m3 8.4c-2.4 0-5-2-5.8-4.4-.5-1.3-.4-2.6.2-3.5a3 3 0 0 1 2.6-1.2c2.3 0 4.9 2 5.7 4.4.5 1.3.4 2.6-.2 3.5a3 3 0 0 1-2.6 1.2M237.7 158.3c-.9 0-1.6.3-2 1-.5.6-.6 1.7-.2 2.7.8 2.2 3.1 4 5.1 4 1 0 1.6-.3 2-1 .5-.6.6-1.7.2-2.7-.8-2.2-3-4-5.1-4m3 8.4c-2.4 0-5-2-5.8-4.4-.5-1.3-.4-2.6.2-3.5a3 3 0 0 1 2.6-1.2c2.3 0 4.9 2 5.7 4.4.5 1.3.4 2.6-.2 3.5a3 3 0 0 1-2.6 1.2" fill="#EFF2F7"/><path d="M304.6 125c.2 2.8 1.7 5.5 1 8.2-.7 2.2-2.7 3.7-3.3 6-.7 2.4.5 5 1.7 7.2 1 2 2.5 4 4.6 4.1a6 6 0 0 0 2.7-.8l6.1-3.1c.9-.5 1.8-1 2.5-1.6a32.7 32.7 0 0 0 4.7-17.3c-.3-4.7-2.9-9.4-7.1-11-2.4-1-9.4-1.9-11.5.2-.9.9-.4 1.9-.5 3-.2 1.8-1 3.3-.9 5.1" fill="#524F63"/><path d="M309.6 138.8l-2 .6a31.3 31.3 0 0 0-15 23.9l-4.3 71.9 6.6-3 14.7-93.4z" fill="#EEBCC5"/><path d="M353.4 138.3l-35.4-1.5c-3 0-8.2 1-11 1.8l-4.6 2.2 8 38a76 76 0 0 0-10.5 40.8l4.2 52h39.7l5-54.9a76 76 0 0 0-6-32.7l-2.1-5 12.7-40.7z" fill="#8385E6"/><g transform="translate(307.8 132)"><mask id="z" fill="#fff"><use xlink:href="#x"/></mask><path d="M3.1 21.6c1 1.9 2.3 3.5 4.1 4.6 2.4 1.4 5.3 1.6 8 1a41 41 0 0 0 19-12.6c2.1-2.7 3.8-6.6 2-9.6-1.1-2-3.4-2.9-5.5-3.5-1.8-.5-4-.7-6.3-.7C12 .8-4.2 7.7 3 21.6" fill="url(#y)" mask="url(#z)"/></g><path d="M338.2 119.7c0 9.5-10 22.3-19.4 22.3-9.5 0-14.7-12.8-14.7-22.3a17 17 0 1 1 34 0M353.4 138.3l24.6 32.1a7.2 7.2 0 0 1-2 10.5l-28.7 17.6-3.5-5.5 19.7-15.9a3.5 3.5 0 0 0 .7-4.7l-15-21.3 4.2-12.8zM274.7 238.3H290c2.5 0 4.5-1.9 4.7-4.4l.1-1.7-20.2 6.1z" fill="#EEBCC5"/><path d="M316.6 131.2c-.3-.5 4 11.3 4 11.3s1 4.9 5 3.7c4.1-1.1 1.6-18.5 1-18.7-.5-.2-9.6 4.7-10 3.7" fill="#EEBCC5"/><path d="M326.7 117.5a57.2 57.2 0 0 1-25.4 10.3c2-2.6 1.6-6.3 2-9.5.6-5.4 3.8-10.5 8.4-13.4a18.3 18.3 0 0 1 15.6-1.7 10 10 0 0 1 5 3.4c3.3 4.7-2 8.6-5.6 10.9" fill="#524F63"/><path d="M326 136.5c.5 2.5 2 4.8 2.4 7.4a15 15 0 0 1-.6 5l-1.4 5.9c2.8-.5 5.3-2 7.4-3.7a29 29 0 0 0 10.3-27.1 46.4 46.4 0 0 0-5.5-14.3 7.8 7.8 0 0 0-5.6-3c-2.7-.1-5.1 1.6-6.7 3.8a8.5 8.5 0 0 0-1.8 5c0 1.8.7 8 2.4 8.7 2-1.2 5.2-.1 6 2.2 1.3 3.7-2 4.4-4.2 5.6-2.7 1.6-3.3 1.6-2.7 4.5" fill="#524F63"/><path d="M344 125.3c1.7 1.3 3.6 2.2 5.1 3.7 1.5 1.5 2.4 3.8 1.7 5.7-.5 1.3-1.6 2.1-2.5 3-1 1-1.8 2.2-1.7 3.5.1.9.7 1.6 1.1 2.4 1.3 1.9 2.4 4.1 2 6.4a6.2 6.2 0 0 1-3.2 4.3 8.5 8.5 0 0 1-5.3.8c-1-.1-2-.5-3.2-.4-2.8.1-5 2.7-7.8 3-1.5.2-3.2-.4-4.3-1.6a5.3 5.3 0 0 1-1.3-4.4c.4-2.6 2.7-4.4 4.7-6 2.1-1.6 4.3-3.5 4.6-6 .2-2-.7-4-.4-5.9.3-2.8 2.9-4.8 3.5-7.5.4-1.6-.2-5.5 2.2-5.5 1.9 0 3.5 3.5 4.8 4.5M323.7 122.2c-.5 1-1.1 1.8-1.8 2.7l-2.6 3.6c.6-2.3.8-4.8.6-7.2v-1c.2-.7.8-1.2 1.3-1.6.9-.5 3-2.3 3.8-1.1.7.8-.8 3.8-1.3 4.6M344.5 187.7l-1.6 1.5 5.6 6.6z" fill="#524F63"/><path d="M464.1 242.3l-3.6-71.2s-18.2-3.8-23.6-3.8c-3 0-8 1.4-12 2.7a15 15 0 0 0-8.6 7.3l-29.9 57.5 18.3 1.8 6.2-7-3.1-4.8 11.1-26.4-.2 44.7 45.4-.8z" fill="#D98E9D"/><path d="M461.7 150.6c0 9.7-7.8 17.5-17.5 17.5-5.4 0-9-5.5-12.3-9.3-2.6-3.1-4.6-4-4.6-8.3a17 17 0 0 1 16.9-17.5c9.7 0 17.5 7.8 17.5 17.6" fill="#EEBCC5"/><path fill="#524F63" d="M417 238.3h-61.2l-13-49.1H404z"/><path fill="#FFF" d="M417 238.3h-59.3l-13.2-50.6 59.9 1.5z"/><path fill="#524F63" d="M356.3 238.3h42v-3.5h-42z"/><g transform="translate(418.2 180.7)"><mask id="C" fill="#fff"><use xlink:href="#A"/></mask><path d="M38.7.4l-30.3 32S3.8 44.3.5 53.6v8.8l31.5-.6-10.7-12.5 23.4-11.2-2-38-4 .3z" fill="url(#B)" mask="url(#C)"/></g><path fill="#8385E6" d="M400.7 227H368l-7.3-28 33 .9z"/><path d="M410 251.9l-43.2 11 22 86.7 7.6-3.8-6.5-74.5 38.6-12.2-22.3 13 .4 70.7h6.8s19-69.3 20.8-69.3c1.9 0 33.7-21.2 33.7-21.2l-58-.4z" fill="#9092EC"/><path fill="#524F63" d="M365.6 356.4l30-2.1.8-9.5-32 7.3z"/><path d="M433.2 174.7c.2 3.4.9 6.8 1.9 10 .2.8.4 1.6 1 2 1.2 1 3 .2 4.3-.7 2.2-1.6 4.2-3.3 6-5.4 1-1.4 2-2.9 2.3-4.6.4-1.7 0-3.6-1.3-4.7-2-1.8-6.4-1.7-9-1.8-3.5 0-5.5 1.4-5.2 5.2" fill="#EFF2F7"/><path fill="#524F63" d="M390 361.8l6 .7 17-6.4.4-13.3h-6.8l-3 8.3-9.2 5.6z"/><path d="M437.6 159.4l-1.3 14.9s1 6.2 4.7 5.2c3.6-1 4.1-4 4.1-4l1.6-17.6-9.1 1.5z" fill="#EEBCC5"/><path d="M450.7 144.9c2.8-.2 5.6-.4 8-1.6 2.6-1.2 4.7-3.6 4.6-6.4 0-2.8-2.9-5.4-5.5-4.5l-1.8.7c-1 .2-2 0-2.8-.4-7.1-2-15-3.5-21.7-.2a6.7 6.7 0 0 0-3 2.7c-.5 1-.7 2-.8 3.1a140 140 0 0 0-.5 8.6c2-1 3.8-2.2 5.8-3.1 2-.9 3.2 0 5.3.4 4 .8 8.3.8 12.4.7" fill="#4A4549"/><path d="M434.3 140.1c-1.8-.3-3.7.3-5.2 1.5a17.6 17.6 0 0 0-2.3 7.4l.3 2.9c0 .5.2 1.4.6 2.4 1 1.5 2.6 2.6 4.2 4.5l.2.2c1.7-3 4.5-9.7 5-10.3.8-1 3.3-4.2 2.9-5.5-.5-1.4-4.5-2.8-5.7-3" fill="#4A4549"/><path d="M434.3 147.3l-.5-.5c-.3-.2-.6-.2-.9-.2-1.1 0-2.4.1-3.1 1-.3.4-.5 1-.6 1.4a12 12 0 0 0-.1 3.5c.2 1.8 1 3.8 2.8 4.2 1 .2 2.1-.2 2.9-.9 2.7-2.5 1.3-5.8-.5-8.5" fill="#EEBCC5"/><path d="M456.4 156.5a6 6 0 0 1 2.8-.2c.9.2 1.7 1 1.8 1.9l-.2 1.3c-.3 1.4.3 2.8.8 4.1 1 2.9 1.7 6.3 0 8.8-1.7 2.4-4.9 3-7.8 3a21.6 21.6 0 0 1-19-14.7c-1-2.9-1.2-6-.3-8.8.3-.9 1-1.9 1.8-1.6.5 3.3 2.7 6.3 5.6 7.9 5.3 2.7 9.5-.5 14.5-1.7" fill="#4A4549"/><path d="M344.5 187.7l13.2 50.6H417l-12.6-49.1-60-1.5zm1.9 1.6l56.8 1.3 11.9 46.2h-56.2l-12.5-47.5z" fill="#524F63"/><path d="M440.4 238.3h-84v-3.5h84a1.8 1.8 0 0 1 0 3.5" fill="#FFF"/><path d="M397.8 238.3h-41.5v-3.5h41.5a1.8 1.8 0 0 1 0 3.5" fill="#5B61D3"/><path d="M460.5 171.1l-15.3 40.7-39 5.2 1.6 7.8 49.9-1.6 13.4-35.7c.7-1.8.8-3.7.3-5.5-1.3-4-4.1-7.5-8-9.4l-2.9-1.5z" fill="#D98E9D"/><path d="M406.2 217l-21-11.3s-1.1 1.7.5 3l7 5.4v3c1.8 5.8 7.2 8.6 13.1 8l2-.3-1.6-7.8z" fill="#EEBCC5"/><path d="M491.9 238.2h-25.1s-.7-1.8 3.3-2.5c4-.8 15.3-1.1 15.3-1.1l2.9-3.3 4 1-.4 6z" fill="#75454F"/><path d="M512.5 161.1l-26.7 72.6 6.6 1.6 41-70.7s-1-4.6-8-9c-7-4.3-12.9 5.5-12.9 5.5" fill="#8284E5"/><path d="M513.3 127.8a17.5 17.5 0 0 0-32.3 8.3c-.2 2.7-.2 3.7.9 6.2 1 2.5 4.1 6 2.4 11.1-.4 1.2 0 3 1.3 3.6 1.4.5 2.6-1 4-1 2.4-.1 7.4 3.7 9.2 5.3.8.6 1.6 1.3 2.6 1.4.9.1 1.7-.2 2.5-.6 3.8-2 6.2-6 8.1-9.9 1.8-3.6 3.4-7.5 3.7-11.5.8-4.3 0-8.9-2.4-12.9" fill="#91616A"/><path d="M512.6 161.9c.7.7 1.7 1.5 2.7 1.4.5-.1 1-.4 1.3-.7 1.1-.7 2-1.6 3-2.5.5-.6 1-1.2 1.1-2 0-.5-.1-1-.3-1.3-1.8-4-5.4-7-6.7-11.3-.6-1.9-.7-4-1.3-5.8-.7-1.9-2.2-3.7-4.1-3.8-1.2 0-2.3.6-3.3 1.3-3 2.2-4.8 6.2-4.4 10 .2 3.4 2.2 6.6 5 8.6 2.7 1.8 4.7 3.7 7 6" fill="#91616A"/><path d="M489 122.5c-3.2 2.1-5.6 5.4-7 9 3.5 1.7 12-2 14.3-3.4-.2 5.9 3 11.8 8 14.8 3.1 1.9 6.8 2.7 9.8 4.4.9-2.1 1.4-4.4 1.6-6.6a17.5 17.5 0 0 0-26.6-18.1" fill="#4A4549"/><path d="M498.4 140.4c-1-1.9 0-4.4 1.9-5.3 1.8-1 4.2-.3 5.7 1.1a7.3 7.3 0 0 1 2 5.7c-.2 2.6-2.1 5.5-4.7 5.3-1.5 0-2.7-1-3.5-2.2a14 14 0 0 1-1.7-4" fill="#91616A"/><path fill="#FFF" d="M522.2 152.8l-5-5.9-7.9 14.6 3 9.2 10.4-11.8z"/><path d="M528 153.6l46.8 52.4-28.7 25.3-35.2-54.3c-3.6-5.1 2-16.6 5.5-21.8 2.7-3.8 8-4.6 11.5-1.6" fill="#9092EC"/><path fill="#37354C" d="M573.2 366.7l-12.6-71.4-14.5-64 28.7-25.3-1.7 88.5 7 68.7z"/><path fill="#524F63" d="M574.8 206l-23.6 163-7.2-1.2 2-136.5z"/><path fill="#524F63" d="M530.9 374.1l18.9-.7 1-5.9-5.4-.7-18.2 5.1.4 2.6z"/><path fill="#37354C" d="M580.1 363.2l.6 5.5-21.9 1.3-.2-1.7L578 362z"/><path d="M482.5 238.2h-25s-.8-1.8 3.2-2.5c4-.8 16.2-1 16.2-1l2-3.4 5.5 2-1.9 5z" fill="#91616A"/><path d="M518.3 158.3l-19 36-22.9 40.2 7.4.3 20.4-28.2 27-34.7a9.5 9.5 0 0 0 2.5-11.6c-3-6-11-7-15.4-2" fill="#9092EC"/><g transform="translate(516.9 174.8)"><mask id="F" fill="#fff"><use xlink:href="#D"/></mask><path d="M1.3 13.5l11 16.9C11.8 23 9.2.2 9.2.2L1.3 13.5z" fill="url(#E)" mask="url(#F)"/></g><g><path d="M321.5 265.3c-1.3 0-11.6 4.3-11.6 4.3l8 66.1c-1.8.9-4.3 1.4-6 1.9-4 1.1-7.5 1.5-11 3.8-.2.2-.3 1.2-.4 1.6 0 .8 1 1 1.7 1.1 4.7.2 9.5.3 14.3 0 3 0 5.5-1.6 8.2-3 1.5-.8 2.1-3.2 2-4.3 0-.3-4-71.5-5.2-71.5" fill="#EEBCC5"/><path d="M312.6 341.7c4.6-.4 10.8-2.5 14.3-5.4.4 3-.5 6-6.3 7.5-6.7 1.7-13.8 3.6-20.4 1.6-.7-.2-1.6-.6-1.5-1.4 0-.3.2-.6.4-.9 1.1-1.5 4.6-4.3 6.7-3.7 1 .4 1.8 1.6 3 2 1.2.4 2.6.4 3.8.3" fill="#524F63"/><path d="M346 336.8c0-.3-4.1-71.5-5.3-71.5-1.3 0-11.6 4.3-11.6 4.3l8 66.1c1.4 3.6 2.6 7 4.5 10.2a21 21 0 0 0 8 8c.3.2.8.4 1.1.2l.4-.6c.6-2-.3-4-1-6-1.6-3.4-3.9-7-4.2-10.7" fill="#EEBCC5"/><path d="M339.2 345.5c2 3.9 4.6 7.7 8.5 9.5.7.3 1.4.6 2.2.4 1-.2 1.6-1 1.9-2 .2-1 0-2-.2-3a15 15 0 0 0-1.7-4.1c-.2-.3-.5-.6-.8-.7-.5 0-.8.3-1.2.6-1 .7-2.5.6-3.6 0-1-.6-1.9-1.7-2.6-2.7-1.5-2-2.8-5.8-4.9-7-.6 3.1 1 6.4 2.4 9M231.7 356.3a5 5 0 1 1-9.9 0 5 5 0 0 1 9.9 0M290.6 356.3a5 5 0 1 1-9.8 0 5 5 0 0 1 9.8 0M259.9 356.3a5 5 0 1 1-9.8 0 5 5 0 0 1 9.8 0" fill="#524F63"/><path d="M226.8 356.3v-2.6c0-5.7 4.6-10.3 10.2-10.3h19.3v-50.1" stroke="#524F63" stroke-width="1.5"/><path d="M285.2 356.3v-2.6c0-5.7-4.6-10.3-10.3-10.3h-19.3v-50.1M255 356.3v-12.9" stroke="#524F63" stroke-width="1.5"/><path fill="#524F63" d="M249.8 343h10.8v-25h-10.8z"/><path fill="#524F63" d="M251.5 322h7v-28.3h-7zM419.5 356.3a5 5 0 1 1-9.8 0 5 5 0 0 1 9.8 0M478.5 356.3a5 5 0 1 1-9.9 0 5 5 0 0 1 9.9 0M447.7 356.3a5 5 0 1 1-9.8 0 5 5 0 0 1 9.8 0"/><path d="M414.6 356.3v-2.6c0-5.7 4.6-10.3 10.3-10.3h19.3v-50.1" stroke="#524F63" stroke-width="1.5"/><path d="M473 356.3v-2.6c0-5.7-4.6-10.3-10.2-10.3h-19.3v-50.1M442.8 356.3v-12.9" stroke="#524F63" stroke-width="1.5"/><path fill="#524F63" d="M437.6 343h10.9v-25h-10.9z"/><path fill="#524F63" d="M439.4 322h7v-28.3h-7z"/><path fill="#BCBACE" d="M148 297.1h336.2v-53.5H147.9z"/><path fill="#524F63" d="M148.4 380.5h5.7V244h-5.7zM482.3 380.5h5.7V244h-5.7z"/></g><g transform="translate(147.3 242.9)"><mask id="I" fill="#fff"><use xlink:href="#G"/></mask><path fill="url(#H)" mask="url(#I)" d="M.3 1l340.4 31.3V1z"/></g><path fill="#E0E4ED" d="M134.8 247.4h365.6v-9H134.8z"/></g></svg>