<svg width="666" height="584" xmlns="http://www.w3.org/2000/svg"><g fill-rule="nonzero" fill="none"><path d="M298.58 49.628c-11.294 0-16.855-12.436-22.243-24.469-5.388-12.032-10.516-23.49-20.745-23.49-10.228 0-15.299 11.515-20.716 23.49-5.416 11.975-10.977 24.469-22.242 24.469-11.266 0-16.856-12.436-22.243-24.469-5.388-12.032-10.517-23.49-20.745-23.49-10.228 0-15.3 11.515-20.716 23.49-5.417 11.975-10.949 24.469-22.243 24.469-11.294 0-16.855-12.436-22.243-24.469C99.056 13.127 93.928 1.67 83.728 1.67a.835.835 0 1 1 0-1.669c11.266 0 16.855 12.436 22.243 24.468 5.388 12.033 10.516 23.49 20.716 23.49 10.2 0 15.328-11.514 20.745-23.49C152.848 12.493 158.38 0 169.646 0c11.265 0 16.855 12.436 22.243 24.468 5.388 12.033 10.545 23.49 20.745 23.49 10.199 0 15.299-11.514 20.715-23.49C238.766 12.493 244.327 0 255.592 0c11.266 0 16.856 12.436 22.243 24.468 5.388 12.033 10.546 23.49 20.745 23.49a.835.835 0 1 1 0 1.67z" fill="#FCA286" opacity=".3"/><path d="M6.339 336.254a84.765 84.765 0 0 1 3.873-71.247 84.9 84.9 0 0 1 56.92-43.093l9.018 41.28c-19.575 4.286-33.528 21.603-33.537 41.625a42.139 42.139 0 0 0 2.881 15.775L6.34 336.254z" fill="#FFC550"/><path d="M141.381 370.539a84.832 84.832 0 0 1-60.073 24.871c-3.855 0-7.705-.26-11.525-.777a84.736 84.736 0 0 1-48.577-24.094 64.72 64.72 0 0 1-1.93-2.044l30.886-28.787c11.663 12.484 29.66 16.803 45.726 10.975 16.066-5.83 27.096-20.68 28.025-37.731.928-17.052-8.424-33.01-23.762-40.546l18.728-37.912a84.13 84.13 0 0 1 22.502 16.092c33.098 33.147 33.098 86.806 0 119.953z" fill="#F25F46"/><path d="M118.879 234.408l-18.728 37.911a42.212 42.212 0 0 0-18.843-4.404c-3.061 0-6.114.328-9.105.979l-9.047-41.28c2.19-.49 4.408-.892 6.627-1.18a82.446 82.446 0 0 1 11.525-.806 84.605 84.605 0 0 1 23.914 3.454 82.706 82.706 0 0 1 13.657 5.326z" fill="#F7882D"/><path d="M19.304 376.296a83.615 83.615 0 0 1-16.913-26.541l39.329-15.66a42.196 42.196 0 0 0 8.5 13.415l-30.916 28.786z" fill="#D1D9FE"/><path d="M552.501 231.53a828.206 828.206 0 0 0-361.361 0c-6.854 1.596-13.729-2.573-15.472-9.385a955832.364 955832.364 0 0 0-37.456-155.907c-1.642-6.794 3.86-13.962 12.36-15.862a1014.552 1014.552 0 0 1 442.497 0c8.5 1.9 14.003 9.068 12.36 15.862a229432.024 229432.024 0 0 1-37.455 155.907c-1.744 6.812-8.619 10.981-15.473 9.384" fill="#FFDEA9"/><path d="M186.703 212.472c-10.66-47.65-21.34-95.302-32.04-142.953a7.918 7.918 0 0 1 6.915-8.636 1002.125 1002.125 0 0 1 420.485 0 7.918 7.918 0 0 1 6.915 8.636 155928.68 155928.68 0 0 0-32.04 142.953 7.203 7.203 0 0 1-8.643 5.326 841.242 841.242 0 0 0-352.949 0 7.203 7.203 0 0 1-8.643-5.326" fill="#FFF"/><path d="M410.66 73.089l-4.668 115.577h-2.881l4.264-115.577h3.37" fill="#F25F46"/><path d="M200.936 153.633l9.594 49.743-2.881.576a20671.251 20671.251 0 0 0-9.796-49.714l3.083-.605zM270.95 154.64l4.408 38.69-2.882.345a14066.692 14066.692 0 0 1-4.552-38.66l3.083-.374M337.62 107.085c1.019 27.156 1.979 54.31 2.882 81.466h-2.881l-3.285-81.466h3.285zM482.142 101.184l-10.89 92.606-2.882-.345c3.515-30.879 7.04-61.757 10.574-92.635l3.198.374zM548.18 142.234c-4.053 20.592-8.106 41.164-12.16 61.718l-2.88-.576 11.928-61.747 3.14.605" fill="#E2EBF4"/><path d="M541.84 174.388c0 .288 0 .576-.143.864 0-.288 0-.576.144-.864m-349.059-70.325a27.712 27.712 0 0 0-5.446.547c.202.95.375 1.9.548 2.878a24.771 24.771 0 0 1 4.725-.46c14.665 0 25.182 13.904 35.698 28.614 11.064 15.371 21.811 31.32 37.975 31.32a25.954 25.954 0 0 0 2.88-.174l-.345-2.878c-.854.056-1.71.056-2.564 0-14.406 0-24.289-14.681-35.295-30.082-10.459-14.739-21.84-29.88-38.234-29.88M478.915 92.72c-17.575 0-28.178 16.667-37.859 32.874-9.969 16.639-18.785 32.414-33.912 32.817v2.878c17.028-.288 26.767-17.588 36.88-34.313 9.68-16.12 19.477-31.377 35.122-31.377.963 0 1.925.058 2.881.172 17.287 2.044 23.741 20.15 29.82 39.121 5.763 18.02 11.15 36.472 26.536 41.453.202-.95.375-1.9.548-2.88-13.513-4.663-18.325-21.474-24-39.321-6.022-19.057-12.995-38.948-32.558-41.28a32.788 32.788 0 0 0-3.314-.173m-143.6-5.383h-1.094c-19.679.806-28.12 20.15-35.583 38.632-7.03 17.271-13.139 33.824-26.968 37.422 0 .95.201 1.929.317 2.879 15.76-3.714 22.502-21.734 29.676-39.294 7.491-18.48 15.242-35.983 32.644-36.703h1.009c16.797 0 25.7 16.553 34.574 34.055 8.874 17.502 17.115 35.407 34.027 37.048v-2.879c-15.01-1.583-22.56-17.963-31.203-35.292-8.644-17.33-18.44-35.781-37.456-35.781" fill="#E7EAFE"/><path d="M404.148 158.383v2.878H407.202v-2.878h-1.498a14.13 14.13 0 0 1-1.556 0" fill="#DD7A7D"/><path d="M272.073 163.277c-.948.241-1.91.424-2.881.546l.345 2.88c.97-.115 1.933-.288 2.882-.52 0-.949-.202-1.928-.317-2.878M538.844 173.61c-.172.95-.345 1.9-.547 2.88a23.99 23.99 0 0 0 2.881.748c0-.633.26-1.295.404-1.958.144-.662 0-.575.144-.863-.976-.2-1.938-.459-2.882-.777" fill="#D2DCF7"/><path d="M190.362 71.448a4.316 4.316 0 0 1-1.745 4.5 4.325 4.325 0 0 1-4.829.074 4.316 4.316 0 0 1 1.532-7.856 4.264 4.264 0 0 1 5.042 3.282zM206.381 68.598a4.345 4.345 0 0 1-1.815 4.512 4.354 4.354 0 0 1-4.866.007 4.345 4.345 0 0 1 1.668-7.887 4.267 4.267 0 0 1 5.013 3.368zM222.4 66.007a4.316 4.316 0 0 1-1.899 4.436 4.325 4.325 0 0 1-4.828-.092 4.316 4.316 0 0 1 1.801-7.798 4.264 4.264 0 0 1 4.927 3.454z" fill="#FFC550"/><path fill="#D6DDEA" d="M187.51 573.022l1.584-24.094 11.18 1.18-4.121 24.613z"/><path d="M197.161 568.935c.71.073 1.38.353 1.93.806a51.865 51.865 0 0 0 11.93 8.031c5.761 2.188 9.075 5.757.143 5.757-8.932 0-11.669-.259-14.406-.345-3.976 0-2.19.345-12.159.345-4.898 0-2.593-9.183 0-13.644.807-1.353 1.095-2.476 2.737-2.246l9.825 1.296z" fill="#D84835"/><path fill="#D6DDEA" d="M216.408 573.022l5.07-23.49 11.18 1.18-7.606 24.009z"/><path d="M226.607 568.935c.71.073 1.38.353 1.93.806a61.8 61.8 0 0 0 21.322 9.643c6.338.921 6.655 4.059-2.276 4.059-8.932 0-15.501-.777-19.506-.691-4.005.086-5.503.69-15.328.69-7.52 0-2.593-9.585 0-14.047a4.122 4.122 0 0 1 4.091-1.842l9.767 1.382z" fill="#F25F46"/><path d="M332.924 148.192a67.4 67.4 0 0 1-8.643 5.47c-1.9.32-3.71 1.047-5.302 2.13-1.988 1.324-11.525 8.089-14.204 16.696a260.186 260.186 0 0 1-3.919 8.06l-.864 1.728-.807 1.583c-1.354 2.562-2.68 5.037-4.005 7.37-5.042 9.038-9.623 15.89-11.755 17.271-7.78 3.915-31.232 1.295-45.38-1.842a7.974 7.974 0 1 0-3.429 15.573 178.037 178.037 0 0 0 34.864 4.203 49.02 49.02 0 0 0 21.12-3.714c5.762-2.878 11.207-14.623 15.298-25.36.922-2.36 1.758-4.693 2.507-6.852l1.614-4.577v-.345a208.719 208.719 0 0 1 2.016-5.93c1.009-2.879 1.614-3.944 2.536-6.045.922-2.102 9.565-2.13 13.11-4.52 3.543-2.389 3.255-8.636 1.757-12.81a6.332 6.332 0 0 0-.432-.748c.691-.403 1.354-.864 2.045-1.324 5.244-3.426 9.45-11.86 1.873-6.017z" fill="#FFAF84"/><path d="M241.36 165.176a28.772 28.772 0 0 0-8.085-20.99 28.825 28.825 0 0 0-20.728-8.775c-16.538 0-29.949 13.386-29.965 29.91 0 11.514 6.137 24.18 15.645 29.189a37.855 37.855 0 0 0 4.956 22.683c4.87 7.715 5.763 9.27 5.907 9.414a9.423 9.423 0 0 0 8.292 4.934 9.423 9.423 0 0 0 8.286-4.944 9.406 9.406 0 0 0-.415-9.634s-.749-1.295-6.108-9.787a15.217 15.217 0 0 1-2.132-9.615c19.045 3.598 24.346-17.502 24.346-32.385z" fill="#FFAF84"/><path d="M190.074 382.773a97.79 97.79 0 0 1-2.882-49.311h67.104a300.608 300.608 0 0 1 .26 42l-64.482 7.31z" fill="#293549"/><path d="M201.887 358.736h-.23c-7.29 0-15.963 0-13.399 16.063 0 .605 3.083 65.172.894 92.29-2.046 25.59-3.89 96.52-3.919 97.297h14.81c0-.748 13.714-69.75 15.76-94.995 2.247-27.98 4.034-91.397 4.091-94.045.317-7.513-10.603-16.322-18.007-16.61z" fill="#293549"/><path d="M254.584 372.467c-.519-7.398-7.808-11.37-15.155-10.823-7.347.547-22.243 6.361-21.753 13.76 0 .546 13.138 56.507 13.628 81.753.432 22.367-1.297 41.05-16.308 107.46l14.608.978c3.284-8.636 29.1-77.493 28.495-108.956-.432-25.908-3.313-81.869-3.515-84.172z" fill="#293549"/><path d="M192.206 214.603s-10.92 52.045-12.966 61.66a9.014 9.014 0 0 1-7.001 7.14 9.776 9.776 0 0 1-2.363.316c-3.169 0-6.338-4.836-15.904-19l-.922-1.352-3.573-5.297-1.008-1.468-7.491-10.795c-2.737.979-10.978 5.44-14.233 5.44-4.409 0-9.825-.431-8.097-4.49a15.901 15.901 0 0 1 10.286-8.377 49.558 49.558 0 0 0 7.895-2.706c.13-.045.255-.103.374-.172l.75-.317c.235-.1.475-.186.72-.26l.749-.172h3.025l.778.202c.24.056.473.143.692.259.253.085.495.201.72.345l.634.374c.223.147.435.31.634.49.212.149.405.323.576.518l.547.604.26.317c3.083 4.232 6.482 8.636 9.825 12.954l1.123 1.41a322.947 322.947 0 0 0 4.034 4.952l1.066 1.295c.95 1.123 1.844 2.16 2.708 3.11.519-2.477 1.095-5.182 1.671-8.004l.26-1.18c3.803-18.193 8.643-41.107 8.643-41.107l15.588 3.31z" fill="#FFAF84"/><path d="M163.336 258.53l-9.393 6.19-.922-1.353-3.572-5.297-1.009-1.468 8.644-5.757 1.123 1.41a322.942 322.942 0 0 0 4.034 4.952l1.095 1.324z" fill="#ED8C62"/><path d="M297.255 184.52c-9.623 18.424-13.945 22.282-14.608 22.8-7.174 3.397-24.26 1.957-37.888-.806a38.955 38.955 0 0 0-7.318-1.584H181.92a6.626 6.626 0 0 0-6.454 5.096s-6.224 29.62-10.228 48.591l-3.199-3.829-14.636 11.717c11.179 13.673 16.941 18.51 22.675 18.538a12.111 12.111 0 0 0 2.65-.317 10.204 10.204 0 0 0 2.882-1.209 10.565 10.565 0 0 0 4.87-6.966c.431-2.015 1.267-5.988 2.304-10.968 3.083 25.908 7.78 31.06 4.264 67.879h67.104s-2.564-68.34-7.29-104.955a108.516 108.516 0 0 0 24.548.518 52.994 52.994 0 0 0 19.737-5.067c2.708-1.353 6.05-2.878 19.88-29.448l-13.772-9.99z" fill="#457BF4"/><path fill="#B6D0FF" d="M162.04 254.788l-14.637 11.717-2.334-2.88 14.637-11.686z"/><path d="M310.163 185.557v.346l-1.614 4.577-9.22-6.621.807-1.583.864-1.728 9.163 5.01z" fill="#ED8C62"/><path d="M312.698 191.516a43.422 43.422 0 0 1-1.556 2.879l-13.887-9.99 1.556-2.878 13.887 9.989z" fill="#B6D0FF"/><path d="M182.928 265.641a3412.982 3412.982 0 0 0-2.334 10.91 10.565 10.565 0 0 1-4.869 6.966l3.371-47.037a1131.933 1131.933 0 0 1 3.832 29.161z" fill="#3972D8"/><path d="M242.483 130.662s-.519 4.577-11.064-.173c-19.823-8.924-40.02-4.203-45.58 0-5.561 4.203-6.138 8.377-4.467 11.802a20.549 20.549 0 0 0-7.29 13.328c0 17.042 10.661 34.343 22.36 34.343 18.67 0 26.88-22.684 25.93-35.782 0-1.18-.173-2.332-.288-3.512l1.786.317c21.782 4.145 18.613-20.323 18.613-20.323z" fill="#F78834"/><path d="M212.028 166.587a10.273 10.273 0 0 0 3.63 7.83 4.065 4.065 0 0 0 4.308.481 4.059 4.059 0 0 0 2.29-3.676v-9.27a4.059 4.059 0 0 0-2.29-3.676 4.065 4.065 0 0 0-4.307.481 10.215 10.215 0 0 0-3.63 7.83z" fill="#FFAF84"/><path d="M226.81 563.408l-1.355-.432c.23-.749 20.918-67.245 23.395-77.867a137.023 137.023 0 0 0 4.15-32.155c-.375-9.125-5.36-82.502-5.417-83.25.95-8.866 1.44-37.624 1.44-37.912h1.44c0 .317-.489 29.132-1.44 37.94 0 .634 5.042 74.04 5.417 83.165a139.439 139.439 0 0 1-4.178 32.528c-2.506 10.594-23.222 77.119-23.453 77.983zM184.916 339.478h22.445v1.44h-22.445z" fill="#687C99"/><path d="M433.968 348.344h79.954a3.43 3.43 0 0 0 2.973-1.423c.683-.95.833-2.183.398-3.269l-13.398-47.411a6.626 6.626 0 0 0-5.993-4.663H417.95a3.43 3.43 0 0 0-2.956 1.415 3.423 3.423 0 0 0-.415 3.248l13.369 47.411a6.712 6.712 0 0 0 6.021 4.692z" fill="#CC5605"/><path d="M435.726 348.344h79.954a3.43 3.43 0 0 0 2.972-1.423c.683-.95.833-2.183.399-3.269l-13.398-47.411a6.655 6.655 0 0 0-5.993-4.663h-79.982a3.4 3.4 0 0 0-2.954 1.413 3.394 3.394 0 0 0-.389 3.25l13.37 47.411a6.683 6.683 0 0 0 6.02 4.692z" fill="#F78834"/><path d="M435.495 336.945l-8.787-31.118a5.264 5.264 0 0 1 .864-4.615 5.274 5.274 0 0 1 4.207-2.092h63.012a5.272 5.272 0 0 1 5.07 3.857l8.788 31.09a5.264 5.264 0 0 1-.864 4.614 5.274 5.274 0 0 1-4.207 2.092h-63.012a5.243 5.243 0 0 1-5.07-3.828z" fill="#F7F7F7"/><path d="M430.54 349.208a2.449 2.449 0 0 0 2.276 1.583h84.42a2.449 2.449 0 0 0 2.304-1.583.633.633 0 0 0-.605-.864h-87.79a.634.634 0 0 0-.605.864z" fill="#CC5605"/><path d="M452.466 349.208a2.449 2.449 0 0 0 2.305 1.583h84.42a2.449 2.449 0 0 0 2.275-1.583.633.633 0 0 0-.605-.864h-87.79a.634.634 0 0 0-.605.864z" fill="#FCD592"/><path d="M488.97 348.344v.403c.016.45.386.807.836.806h14.406c.45 0 .82-.356.836-.806v-.403H488.97z" fill="#FFF3E1"/><path d="M563.738 358.592a13.384 13.384 0 0 0-5.258-8.808 13.407 13.407 0 0 0-9.955-2.505c-7.865 1.152-77.216 12.58-87.617 57.573-6.339 27.462 12.36 75.046 27.025 113.188l12.707-3.77c-10.603-32.5-17.057-88.49-13.6-103.373 5.33-23.029 50.133-34.86 65.404-37.134 7.307-1.082 12.359-7.868 11.294-15.17z" fill="#F4B038"/><path d="M569.241 158.757a2.882 2.882 0 0 0-.49-.288c-3.111-13.213-14.953-26.512-29.129-26.512-14.175 0-25.642 12.983-28.985 25.908a3.748 3.748 0 0 0-2.449.892 10.273 10.273 0 0 0 0 15.66 3.806 3.806 0 0 0 3.199.835c2.708 8.031 11.179 20.783 23.827 21.676a18.064 18.064 0 0 1-2.16 10.248c-5.389 8.492-6.138 9.787-6.138 9.787-2.643 4.463-1.19 10.22 3.256 12.896a9.572 9.572 0 0 0 4.84 1.325 9.394 9.394 0 0 0 8.068-4.577c0-.144 1.066-1.728 5.906-9.414a39.667 39.667 0 0 0 4.985-23.345c6.655-3.512 11.525-11.515 13.945-18.74a3.66 3.66 0 0 0 1.325-.691 10.273 10.273 0 0 0 0-15.66z" fill="#FFAF84"/><path d="M562.067 377.102s8.154-14.969 2.881-43.64h-67.046s-.95 21.82.577 43.64h63.588z" fill="#FFC550"/><path d="M511.79 350.935c-12.044 0-22.82 0-32.356-.173-49.557-.374-64.482-.489-71.512 12.235-2.449 4.404-4.062 11.687 2.132 21.33 15.616 24.382 69.64 62.582 75.46 67.303l9.968-12.493c-12.908-10.45-40.97-42.633-56.817-61.315 9.853-.519 24.922-.403 40.538-.26 9.624 0 20.457.144 32.587.144 7.4 0 13.398-5.993 13.398-13.385 0-7.393-5.999-13.386-13.398-13.386z" fill="#FFC550"/><path d="M611.797 270.333c0-6.16-6.483-18.596-14.637-31.665-6.627-10.478-14.262-21.273-20.168-29.304a7.986 7.986 0 0 0-10.898-1.416 7.97 7.97 0 0 0-1.981 10.8c6.972 9.528 14.262 20.15 20.168 29.477a111.862 111.862 0 0 1 11.525 21.13c-3.025 5.757-20.63 23.633-36.044 37.422l-.634.69a4.29 4.29 0 0 0-.346.404 4.375 4.375 0 0 0-.633.978l-.202.317c-.17.364-.313.74-.432 1.123v.316c0 .115-.144.749-.202 1.152.012.124.012.25 0 .374-.029.354-.029.71 0 1.065a2.474 2.474 0 0 0 0 .46c.037.333.104.66.202.98a3.049 3.049 0 0 0 0 .546c0 .288.26.605.403.893.144.288.144.374.23.518.176.299.368.587.577.864l.288.403a34.775 34.775 0 0 0 13.138 9.585 8.16 8.16 0 0 0 2.593.432c3.314 0 4.927-5.009 6.08-8.29 1.44-4.174-4.35-7.945-8.5-9.385l-.346-.144c22.964-17.243 39.819-30.542 39.819-39.725z" fill="#FFAF84"/><path d="M597.16 238.783l-8.787 6.477-4.15 3.08c-5.762-9.24-13.08-19.949-20.168-29.477a7.97 7.97 0 0 1 1.982-10.8 7.986 7.986 0 0 1 10.897 1.416c5.964 8.031 13.6 18.826 20.226 29.304z" fill="#ED8C62"/><path d="M597.65 235.76l-9.566 5.93-8.269 5.067-1.383-2.216-4.12-6.65a517.362 517.362 0 0 0-7.52-11.918c-1.959-3.022-3.17-4.922-3.198-4.951a10.413 10.413 0 0 1-.823-9.88 10.428 10.428 0 0 1 7.824-6.096c.785-.1 1.579-.1 2.363 0 3.302.18 6.32 1.923 8.125 4.692.202.288 5.013 7.657 10.977 17.272l4.12 6.62 1.47 2.13z" fill="#F25F46"/><path d="M587.998 241.69l-8.183 5.067-1.383-2.216-4.12-6.65a517.362 517.362 0 0 0-7.52-11.918c-1.959-3.022-3.17-4.922-3.198-4.951a10.413 10.413 0 0 1-.823-9.88 10.428 10.428 0 0 1 7.824-6.096c.785-.1 1.579-.1 2.363 0a14.68 14.68 0 0 1 3.832 5.757c.202.49 4.552 12.061 9.796 27.06l1.412 3.828z" fill="#E24530"/><path d="M576.761 212.674c-4.639 26.714-13.772 93.815-11.784 120.903h-67.075s.72-18.05 2.075-40.647c1.757-30.053 4.61-68.08 8.183-82.444 0-.201 0-.403.144-.576a6.568 6.568 0 0 1 6.396-4.893h55.52a6.6 6.6 0 0 1 5.049 2.313 6.588 6.588 0 0 1 1.492 5.344z" fill="#F25F46"/><path d="M555.642 139.672c-6.339 8.204-43.823 13.241-43.823-5.153a7.309 7.309 0 0 1 2.593-5.757s.317 2.878 1.7 3.598a51.312 51.312 0 0 1 12.821-5.095s-1.239 2.878 3.544 2.187c13.715-1.87 33.71-3.368 23.165 10.22z" fill="#5252FF"/><path d="M525.015 223.9s-.404 2.591-.98 6.622c-.576 4.03-1.383 9.672-2.19 15.89l-1.181 8.837-20.687 37.566c1.757-30.053 4.61-68.08 8.183-82.444a8.185 8.185 0 0 1 2.68-1.382 8.968 8.968 0 0 1 5.502 0 12.815 12.815 0 0 1 8.154 8.636 13.72 13.72 0 0 1 .519 6.276z" fill="#E24530"/><path d="M529.567 134.087c-6.857 1.814-12.764 13.789-13.398 20.87-1.123 13.098 8.644 33.565 29.1 33.565 24.318 0 26.652-25.908 25.47-32.413-1.18-6.506-5.157-21.043-15.616-22.339-6.252-.806-18.238-1.612-25.556.317z" fill="#5252FF"/><path d="M519.05 208.24a8.649 8.649 0 0 0-2.362-.863 10.465 10.465 0 0 0-9.911 3.052 8.63 8.63 0 0 0-.692 1.957c-.288 1.267-3.63 16.437-7.145 33.364-3.688 17.444-7.636 36.731-8.788 44.56-2.391 16.323-27.948 29.45-37.6 33.134l-.432.202-.893.46a7.145 7.145 0 0 0-.75.547l-.432.317-.144.144c-2.045 1.9-10.055 9.989-9.075 19.805.403 4.116.49 5.181 4.38 6.333 1.982.511 4.034.706 6.078.575 4.409 0 6.915-1.266 6.483-5.757 0-1.094-2.19-11.514-.374-13.53 22.732-9.643 44.716-13.846 48.606-40.041 1.037-7.053 4.58-24.498 8.01-40.992 3.86-18.366 7.606-35.523 7.692-35.868a7.97 7.97 0 0 0-2.65-7.398z" fill="#FFAF84"/><path d="M521.5 215.87c0 .345-3.832 17.501-7.693 35.867l-15.011-5.757c3.515-16.927 6.857-32.097 7.145-33.364a8.63 8.63 0 0 1 .692-1.957 10.465 10.465 0 0 1 9.91-3.051 8.649 8.649 0 0 1 2.363.863 7.97 7.97 0 0 1 2.594 7.398z" fill="#ED8C62"/><path d="M497.902 243.332l20.486 4.087.518-2.562 1.528-7.657a1304.6 1304.6 0 0 1 2.88-13.789c.75-3.512 1.21-5.757 1.24-5.757.609-2.703.116-5.537-1.371-7.876a10.43 10.43 0 0 0-6.553-4.588 10.15 10.15 0 0 0-5.416.23 10.367 10.367 0 0 0-7.06 7.657c0 .345-1.987 8.924-4.206 20.007l-1.556 7.686-.49 2.562z" fill="#F25F46"/><path fill="#EFA21B" d="M544.319 341.033h22.444v1.439H544.32zM484.044 446.132c-24.03-17.675-52.582-45.195-64.972-62.64-4.235-5.958-5.301-11.053-3.14-15.199 3.198-6.218 13.455-9.614 28.812-9.614h49.874c12.245 0 12.245-5.758 12.245-7.945v-18.136h1.44v18.136c0 6.217-4.61 9.384-13.685 9.384h-49.874c-14.608 0-24.663 3.224-27.573 8.837-1.873 3.627-.836 8.233 3.025 13.703 12.332 17.272 40.74 44.734 64.683 62.322l-.835 1.152z"/><path d="M482.66 445.383a4.32 4.32 0 0 0-1.382 1.584 61.154 61.154 0 0 1-14.867 18.02c-5.302 3.627-4.207 6.592 3.832 2.677 8.038-3.915 13.57-7.542 17.287-9.212 3.717-1.67 5.244-1.784 14.06-6.102 6.771-3.31-1.872-9.759-6.252-12.58a4.123 4.123 0 0 0-4.495 0l-8.182 5.613zM488.366 514.759a3.941 3.941 0 0 0-.692 1.986c-.202 4.951-2.737 16.091-8.644 19.834-5.387 3.454-3.687 6.102 4.553 2.59 7.347-3.109 11.323-11.14 14.089-14.047 2.766-2.908 4.207-3.627 10.776-10.91 5.042-5.585-5.388-8.348-10.517-9.356a4.122 4.122 0 0 0-4.091 1.785l-5.474 8.118z" fill="#293549"/><path fill="#FFE7C2" d="M495.511 376.382h71.252v207.06h-71.252z"/><path fill="#FFDEA9" opacity=".7" d="M594.221 534.39h71.253v49.053H594.22zM396.8 497.947h71.253v85.525h-71.252zM298.522 445.153h71.253v138.29h-71.253z"/><path fill="#FFDEA9" d="M312.496 279.977h38.84v12.004h-38.84z"/><path fill="#E2EBF4" d="M304.343 262.244h4.177v104.581h-4.177z"/><path fill="#FFDEA9" d="M312.496 297.248h23.713v12.004h-23.713zM341.827 297.248h32.558v12.004h-32.558zM312.496 314.52h15.415v12.004h-15.415zM312.496 349.064h16.567v12.004h-16.567zM339.407 349.064h39.674v12.004h-39.674zM31.722 103.084h71.281v12.004h-71.28z"/><path fill="#E2EBF4" d="M23.568 103.084h4.178v104.581h-4.178z"/><path fill="#FFDEA9" d="M31.722 120.356h81.625v12.004H31.722zM31.722 137.628h53.764v12.004H31.722zM31.722 172.172h10.257v12.004H31.722zM48.376 172.172h24.548v12.003H48.376z"/><path fill="#F78879" d="M570.053 92.9l6.194-6.192 11.275 11.28-6.194 6.191z"/><path d="M621.247 137.83a7.696 7.696 0 0 1-11.15-.26l-32.471-35.32 8.01-8.032 35.38 32.442a7.74 7.74 0 0 1 .231 11.17z" fill="#EFA46C"/><path d="M584.54 62.179a38.945 38.945 0 0 1-22.152 35.07 39.011 39.011 0 0 1-41.234-4.758 37.438 37.438 0 0 1-6.368-6.448 39.78 39.78 0 0 1-3.111-4.664 38.808 38.808 0 0 1-4.956-16.149v-3.051c0-21.543 17.479-39.006 39.04-39.006h3.083a38.345 38.345 0 0 1 16.135 4.951 35.384 35.384 0 0 1 4.668 3.08 39.252 39.252 0 0 1 15.126 30.86l-.23.115z" fill="#BFE2EF" opacity=".4"/><path d="M564.747 28.24l-53.188 53.14a38.808 38.808 0 0 1-4.955-16.15l42.065-41.942a38.345 38.345 0 0 1 16.078 4.951zM575.897 37.71l-54.743 54.694a37.438 37.438 0 0 1-6.368-6.448l54.743-54.694a38.907 38.907 0 0 1 6.368 6.448z" fill="#FFF" opacity=".3"/><path d="M545.529 105.445c-19.497-.114-36.504-13.256-41.515-32.082-5.01-18.826 3.215-38.672 20.08-48.447 16.865-9.775 38.193-7.057 52.062 6.634a43.152 43.152 0 0 1 9.555 47.236c-6.724 16.222-22.609 26.761-40.182 26.659zm0-77.954c-16.566-.015-30.836 11.665-34.08 27.896-3.243 16.23 5.443 32.49 20.745 38.832 15.302 6.342 32.957.999 42.164-12.76 9.208-13.76 7.403-32.102-4.31-43.806a34.417 34.417 0 0 0-24.52-10.162z" fill="#FCD592"/></g></svg>