<?xml version="1.0" encoding="UTF-8"?>
<svg width="1010px" height="676px" viewBox="0 0 1010 676" version="1.1" xmlns="http://www.w3.org/2000/svg" xmlns:xlink="http://www.w3.org/1999/xlink">
    <g id="Page-1" stroke="none" stroke-width="1" fill="none" fill-rule="evenodd">
        <g id="Group" transform="translate(43.000000, -49.000000)">
            <g id="D-con-dorex" transform="translate(0.000000, 49.000000)">
                <polyline id="Path-1" stroke="#194DD2" stroke-width="86" points="810 0 810 632 0 632 0 212.282209 582.413793 212.282209"></polyline>
                <path d="M713.053812,338.2 C713.053812,343.640027 711.353829,349.113972 707.953812,354.622 C702.989788,362.57804 695.78186,368.629979 686.329812,372.778 C677.965771,376.382018 668.615864,378.184 658.279812,378.184 L588.205812,378.184 L588.205812,297.91 L658.381812,297.91 C668.785865,297.91 678.169771,299.745982 686.533812,303.418 C695.98586,307.566021 703.159788,313.719959 708.055812,321.88 C711.387829,327.388028 713.053812,332.827973 713.053812,338.2 Z M657.742787,369.182 C666.217553,369.182 673.93327,367.736425 680.890167,364.845231 C688.542755,361.652872 694.582516,356.954753 699.009633,350.750733 C702.235104,346.293477 703.847815,342.107332 703.847815,338.192175 C703.847815,333.614452 702.266726,329.066913 699.104499,324.549423 C694.930361,318.526104 688.858977,314.008682 680.890167,310.997022 C674.059759,308.406994 666.375664,307.112 657.837653,307.112 L597.407812,307.112 L597.407812,369.182 L657.742787,369.182 Z M789.757812,378.184 C774.525736,378.184 761.027871,375.328029 749.263812,369.616 C734.371738,362.339964 726.925812,351.868068 726.925812,338.2 C726.925812,325.075934 734.473737,314.740038 749.569812,307.192 C761.809874,301.003969 775.20574,297.91 789.757812,297.91 C804.309885,297.91 817.705751,301.003969 829.945812,307.192 C845.041888,314.740038 852.589812,325.075934 852.589812,338.2 C852.589812,351.868068 845.143887,362.339964 830.251812,369.616 C818.487754,375.328029 804.989889,378.184 789.757812,378.184 Z M789.756812,306.092 C777.80018,306.092 766.507975,308.600027 755.879858,313.616156 C742.847763,319.780556 736.331812,327.969415 736.331812,338.182979 C736.331812,348.577849 742.816132,356.796925 755.784965,362.840454 C766.160032,367.614842 777.483867,370.002 789.756812,370.002 C802.029756,370.002 813.353592,367.614842 823.728658,362.840454 C836.697492,356.796925 843.181811,348.577849 843.181811,338.182979 C843.181811,327.969415 836.665861,319.780556 823.633765,313.616156 C813.005648,308.600027 801.713443,306.092 789.756812,306.092 Z M970.025222,320.802 C973.109377,320.802 975.73415,320.070349 977.89962,318.607026 C980.06509,317.143702 981.147809,315.165536 981.147809,312.672466 C981.147809,310.450383 980.015876,308.634805 977.751975,307.225679 C975.488074,305.816553 972.912516,305.112 970.025222,305.112 L873,305.112 L873,320.802 L970.025222,320.802 Z M912.159973,328 L988.559998,378.184 L973,378.184 L897,328 L873,328 L873,378.184 L863.605812,378.184 L863.605812,297.91 L971.623812,297.91 C976.179835,297.91 980.089796,299.201987 983.353812,301.786 C986.82183,304.574014 988.555812,308.109979 988.555812,312.394 C988.555812,317.086023 986.923829,320.859986 983.659812,323.716 C980.395796,326.572014 976.383836,328 971.623812,328 L912.159973,328 Z M1011,331 L1011,369.380005 L1128.90781,369.179993 L1128.90781,378.184 L1001.30581,378.184 L1001.30581,297.909973 L1049.85781,297.909973 L1049.85781,305.909973 L1011,305.909973 L1011,322 L1065.15781,322 L1065.15781,331 L1011,331 Z M1154.01001,297.909973 L1201.53003,332.23999 L1248.68994,297.909973 L1263.95581,297.909973 L1209.60999,338 L1263.95581,378.184 L1248.68994,378.184 L1201.53181,343.849976 L1154.01001,378.179993 L1139.00581,378.184 L1193.34998,338 L1139.00581,297.909973 L1154.01001,297.909973 Z" id="DOREX-Copy-4" fill="#194DD2" transform="translate(926.080812, 338.046987) rotate(-90.000000) translate(-926.080812, -338.046987) "></path>
            </g>
        </g>
    </g>
</svg>
